<?xml version="1.0" standalone="no"?>
<!DOCTYPE svg PUBLIC "-//W3C//DTD SVG 20010904//EN"
 "http://www.w3.org/TR/2001/REC-SVG-20010904/DTD/svg10.dtd">
<svg version="1.0" xmlns="http://www.w3.org/2000/svg"
 width="1280.000000pt" height="1025.000000pt" viewBox="0 0 1280.000000 1025.000000"
 preserveAspectRatio="xMidYMid meet">
<metadata>
Created by potrace 1.15, written by Peter Selinger 2001-2017
</metadata>
<g transform="translate(0.000000,1025.000000) scale(0.100000,-0.100000)"
fill="#ffffff" stroke="none">
<path d="M1813 10240 c-51 -11 -92 -31 -117 -59 -28 -31 -16 -91 30 -159 24
-35 127 -133 280 -268 374 -329 573 -513 765 -704 141 -140 189 -196 243 -279
169 -261 410 -599 519 -725 138 -161 386 -622 417 -777 30 -145 72 -243 146
-340 56 -73 94 -106 212 -182 97 -63 172 -126 172 -144 0 -5 -73 -40 -162 -78
-217 -92 -570 -268 -802 -400 -1078 -609 -1951 -1385 -2526 -2245 -245 -366
-443 -753 -585 -1147 -35 -94 -57 -139 -94 -186 -145 -184 -258 -421 -295
-617 -69 -362 101 -647 495 -835 50 -23 119 -66 154 -95 122 -101 250 -265
301 -388 26 -60 29 -79 29 -182 0 -92 -4 -122 -18 -148 -22 -40 -10 -62 34
-62 22 0 36 9 59 42 16 22 30 44 30 48 0 4 7 24 15 45 l16 37 20 -26 c70 -89
93 -245 52 -353 -9 -23 29 -1 73 44 65 65 134 251 134 361 0 57 12 92 31 92
29 0 49 -39 49 -98 0 -45 3 -53 17 -50 10 2 25 22 34 47 l16 44 18 -46 c17
-46 17 -116 0 -162 -11 -27 47 26 86 79 16 21 29 33 29 25 0 -29 -52 -125 -86
-160 l-35 -36 43 -6 c125 -16 238 53 295 181 47 108 57 173 57 377 l-1 190
-46 95 c-54 112 -93 240 -102 336 -6 62 -3 79 25 159 68 192 186 382 262 421
66 34 280 94 403 113 39 6 162 10 275 9 166 -1 247 4 425 25 1149 137 2071
380 2732 719 125 64 330 185 363 214 8 7 177 94 375 193 693 347 1003 545
1281 818 147 145 248 266 359 433 87 131 226 407 281 555 35 96 114 389 114
424 0 9 59 127 131 261 72 135 197 378 278 540 232 465 518 920 705 1120 101
108 294 261 497 393 756 492 1566 698 2312 587 82 -12 151 -19 155 -15 4 3 -2
23 -13 43 -35 65 -152 119 -335 156 -189 38 -367 49 -762 50 -213 1 -384 4
-380 7 4 4 61 21 127 38 315 80 509 105 770 98 219 -6 322 -27 474 -97 163
-75 174 -46 34 89 -173 166 -286 199 -771 221 -479 22 -971 76 -1088 120 -15
6 -183 34 -373 61 -302 44 -358 50 -440 44 -243 -17 -453 -79 -621 -183 -41
-25 -146 -111 -235 -190 -183 -165 -310 -271 -341 -282 -37 -14 -279 -290
-546 -620 -269 -334 -639 -595 -889 -629 -41 -5 -171 -30 -289 -55 -118 -24
-275 -52 -348 -61 -233 -28 -573 -96 -763 -152 -11 -3 -53 36 -132 124 -265
295 -388 457 -479 637 -102 198 -377 596 -498 716 -138 139 -432 409 -500 459
-41 31 -163 126 -270 212 -351 280 -620 479 -707 523 -17 9 -89 53 -160 99
-363 236 -712 396 -1063 489 -124 32 -296 45 -377 28z"/>
</g>
</svg>
